<svg xmlns="http://www.w3.org/2000/svg" width="335" height="66" viewBox="0 0 335 66"><defs><style>.a,.b{fill:#282f40;}.b{stroke:#151518;stroke-miterlimit:10;stroke-width:2.835px;}</style></defs><g transform="translate(-14.759 -10.016)"><path class="a" d="M78.989,41.124h-1.62A30.439,30.439,0,0,0,58.639,17.56h14.2a3.2,3.2,0,0,0,2.93,1.913,3.248,3.248,0,1,0-3.03-4.34H51.649V14.025a1.319,1.319,0,0,0-1.31-1.319h-4.37a1.319,1.319,0,0,0-1.31,1.319v1.108H23.569a3.238,3.238,0,1,0-.09,2.427h12.94a30.439,30.439,0,0,0-18.73,23.564h-1.62a1.319,1.319,0,0,0-1.31,1.319v4.4a1.319,1.319,0,0,0,1.31,1.319h4.37a1.313,1.313,0,0,0,1.31-1.319v-4.4a1.313,1.313,0,0,0-1.31-1.319h-.87A28.478,28.478,0,0,1,43.609,17.56c.35-.06.7-.1,1.05-.131v1a1.316,1.316,0,0,0,.98,1.269l-1.2,2.9-10.2,24.651s-1.26,1.782.63,4.834c1.45,2.346,4.69,12.587,6.12,17.26h-.78a2.06,2.06,0,0,0-2.05,2.064v2.548a2.06,2.06,0,0,0,2.05,2.064H55.9a2.06,2.06,0,0,0,2.05-2.064V71.4A2.06,2.06,0,0,0,55.9,69.34h-.77c1.43-4.672,4.66-14.914,6.11-17.26,1.9-3.051.63-4.834.63-4.834l-10.2-24.671-1.18-2.85a1.306,1.306,0,0,0,1.16-1.3V17.59a28.486,28.486,0,0,1,23.83,23.534h-.87a1.311,1.311,0,0,0-1.3,1.319v4.4a1.311,1.311,0,0,0,1.3,1.319h4.38a1.311,1.311,0,0,0,1.3-1.319v-4.4A1.311,1.311,0,0,0,78.989,41.124Zm-26.48,8.912a4.46,4.46,0,1,1-5.48-4.37V19.745h2.03v25.92A4.477,4.477,0,0,1,52.509,50.035Z" transform="translate(0 0)"/><circle class="a" cx="3.624" cy="3.624" r="3.624" transform="translate(73.04 66.124)"/><rect class="a" width="8.773" height="3.928" transform="translate(236.362 25.686)"/><path class="b" d="M107.569,27.306" transform="translate(-0.046 0.116)"/><path class="b" d="M96.25,17.147" transform="translate(-0.041)"/><g transform="translate(87.471 15.447)"><path class="a" d="M98.789,39.332H87.51V15.447H98.789a10.491,10.491,0,0,1,10.48,10.48v2.925A10.491,10.491,0,0,1,98.789,39.332Zm-7.878-3.4h7.878a7.087,7.087,0,0,0,7.079-7.079V25.927a7.086,7.086,0,0,0-7.079-7.079H90.911Z" transform="translate(-87.51 -15.447)"/></g><g transform="translate(119.885 10.016)"><path class="a" d="M121.709,16.636" transform="translate(-119.939 -10.016)"/><path class="a" d="M123.709,10.016" transform="translate(-119.939 -10.016)"/><path class="a" d="M126.056,10.016l-2.577,6.62h-3.54l1.707-6.62Z" transform="translate(-119.939 -10.016)"/></g><path class="a" d="M123,40.465a9.522,9.522,0,0,1-6.409-2.492l-.952-.886-.279-.336a10.5,10.5,0,0,1,.333-13.742l.158-.151,1.611-1.359a8.283,8.283,0,0,1,10.956.253l.089.088,2.616,2.8L119.423,35.9a6.113,6.113,0,0,0,6.565.385l1.831-1.927,2.466,2.343-2.159,2.273-.2.119A9.562,9.562,0,0,1,123,40.465Zm-4.868-15.081a7.086,7.086,0,0,0-.971,7.97l9.19-8.84-.286-.305a4.878,4.878,0,0,0-6.41-.11Z" transform="translate(-0.052)"/><path class="a" d="M153.5,40.3a9.982,9.982,0,1,1,10.19-9.98A10.1,10.1,0,0,1,153.5,40.3Zm0-16.264a6.287,6.287,0,1,0,6.494,6.284A6.4,6.4,0,0,0,153.5,24.038Z" transform="translate(-0.068 0.1)"/><g transform="translate(135.407 15.366)"><path class="a" d="M142.319,20.346v3.69h-3.16v15.75h-3.69V15.366h3.69v4.98Z" transform="translate(-135.469 -15.366)"/></g><path class="a" d="M116.762,75.01a9.982,9.982,0,1,1,10.191-9.981A10.1,10.1,0,0,1,116.762,75.01Zm0-16.263a6.286,6.286,0,1,0,6.494,6.282A6.4,6.4,0,0,0,116.762,58.747Z" transform="translate(-0.049 0.44)"/><path class="a" d="M306.658,40.218a9.982,9.982,0,1,1,10.19-9.98A10.1,10.1,0,0,1,306.658,40.218Zm0-16.264a6.287,6.287,0,1,0,6.493,6.284A6.4,6.4,0,0,0,306.658,23.954Z" transform="translate(-0.167 0.099)"/><path class="a" d="M339.736,40.218a9.982,9.982,0,1,1,10.19-9.98A10.1,10.1,0,0,1,339.736,40.218Zm0-16.264a6.287,6.287,0,1,0,6.493,6.284A6.4,6.4,0,0,0,339.736,23.954Z" transform="translate(-0.167 0.099)"/><path class="a" d="M211.209,40.786a9.513,9.513,0,0,1-6.408-2.492l-.951-.885-.279-.335A10.5,10.5,0,0,1,203.9,23.33l.157-.15,1.611-1.36a8.284,8.284,0,0,1,10.956.253l.088.088,2.617,2.8-11.7,11.254a6.109,6.109,0,0,0,6.565.384l1.831-1.927,2.467,2.343-2.161,2.273-.2.119A9.555,9.555,0,0,1,211.209,40.786ZM206.341,25.7a7.092,7.092,0,0,0-.97,7.971l9.188-8.84-.285-.306a4.88,4.88,0,0,0-6.409-.11Z" transform="translate(-0.098 0.097)"/><g transform="translate(321.092 15.326)"><path class="a" d="M328.109,20.306V24h-3.16v15.75h-3.69V15.326h3.69v4.98Z" transform="translate(-321.259 -15.326)"/></g><path class="a" d="M96.249,71.3a6.283,6.283,0,1,1,0-12.56,6.614,6.614,0,0,1,4.6,1.85l2.49-2.73a10.28,10.28,0,0,0-7.09-2.82,9.982,9.982,0,1,0,0,19.96,10.258,10.258,0,0,0,6.95-2.69l-2.75-2.5A6.616,6.616,0,0,1,96.249,71.3Z" transform="translate(-0.037 0.44)"/><path class="a" d="M200.019,19.866v3.41h-1.29a5.79,5.79,0,0,0-3.91,4.08V39.8h-3.74V20.386h3.74v1.15a8.818,8.818,0,0,1,3.3-1.62l.38-.05Z" transform="translate(-0.09 0.095)"/><path class="a" d="M233.575,19.866v3.41h-1.29a5.79,5.79,0,0,0-3.91,4.08V39.8h-3.74V20.386h3.74v1.15a8.818,8.818,0,0,1,3.3-1.62l.38-.05Z" transform="translate(-0.107 0.095)"/><path class="a" d="M259.959,20.226a10.235,10.235,0,0,0-5.8,1.79V20.4h-3.69v24.04h3.69V38.4a10.235,10.235,0,0,0,5.8,1.79,9.982,9.982,0,1,0,0-19.96Zm0,16.27a6.518,6.518,0,0,1-5.8-3.47V27.4a6.518,6.518,0,0,1,5.8-3.47,6.289,6.289,0,1,1,0,12.57Z" transform="translate(-0.125 0.109)"/><path class="a" d="M293,29.636v10.11h-3.5V29.636a6.088,6.088,0,0,0-11.28-3.2v13.31h-3.5V15.326h3.5v6.23a9.462,9.462,0,0,1,5.18-1.53A9.611,9.611,0,0,1,293,29.636Z" transform="translate(-0.137)"/><path class="a" d="M186.069,20.4V39.8h-3.4v-1.73a9.208,9.208,0,0,1-15.05-7.14V20.4h3.4v10.53a5.825,5.825,0,1,0,11.65,0V20.4Z" transform="translate(-0.081 0.1)"/><path class="a" d="M158.819,61.4v13.06h-3.69V62.386h-.07a4.086,4.086,0,0,0-8.13,0h-.01a6.99,6.99,0,0,0-.06-.92v-.7h-.13a5.4,5.4,0,0,1,.13.7v12.99h-3.69V61.4q.045-.315.12-.63h-.12v.63a8.082,8.082,0,0,0-.07.86,4.056,4.056,0,0,0-8.06.13h-.06v12.07h-3.69V55.336h3.69v.67a8.088,8.088,0,0,1,10.04,1.5,8,8,0,0,1,5.97-2.61,7.789,7.789,0,0,1,7.79,6.26A2,2,0,0,1,158.819,61.4Z" transform="translate(-0.063 0.44)"/><path class="a" d="M143.169,60.766h.12q-.075.315-.12.63Z" transform="translate(-0.064 0.344)"/><path class="a" d="M146.859,60.766v.7a5.4,5.4,0,0,0-.13-.7Z" transform="translate(-0.066 0.344)"/><path class="a" d="M158.819,61.156v.24a2,2,0,0,0-.04-.24Z" transform="translate(-0.072 0.344)"/><path class="a" d="M131.229,62.386a6.99,6.99,0,0,1,.06-.92v.92Z" transform="translate(-0.058 0.35)"/><path class="a" d="M143.1,62.256a8.082,8.082,0,0,1,.07-.86v.99h-.06A.571.571,0,0,0,143.1,62.256Z" transform="translate(-0.064 0.35)"/><path class="a" d="M143.169,60.766h.12q-.075.315-.12.63Z" transform="translate(-0.064 0.344)"/><path class="a" d="M146.919,62.386h-.06v-.92A6.99,6.99,0,0,1,146.919,62.386Z" transform="translate(-0.066 0.35)"/><path class="a" d="M143.1,62.256a8.082,8.082,0,0,1,.07-.86v.99h-.07Z" transform="translate(-0.064 0.35)"/><path class="a" d="M146.859,60.766v.7a5.4,5.4,0,0,0-.13-.7Z" transform="translate(-0.066 0.344)"/><path class="a" d="M146.859,61.466a6.99,6.99,0,0,1,.06.92h-.06Z" transform="translate(-0.066 0.35)"/><path class="a" d="M158.889,62.386h-.07V61.4A6.41,6.41,0,0,1,158.889,62.386Z" transform="translate(-0.072 0.35)"/></g></svg>